<?xml version="1.0" encoding="utf-8"?>
<svg version="1.1" xmlns:xlink="http://www.w3.org/1999/xlink" width="40px" height="40px" xmlns="http://www.w3.org/2000/svg">
  <defs>
    <filter x="6px" y="11px" width="40px" height="40px" filterUnits="userSpaceOnUse" id="filter2">
      <feOffset dx="1" dy="1" in="SourceAlpha" result="shadowOffsetInner" />
      <feGaussianBlur stdDeviation="2.5" in="shadowOffsetInner" result="shadowGaussian" />
      <feComposite in2="shadowGaussian" operator="atop" in="SourceAlpha" result="shadowComposite" />
      <feColorMatrix type="matrix" values="0 0 0 0 0  0 0 0 0 0  0 0 0 0 0  0 0 0 0.698039215686274 0  " in="shadowComposite" />
    </filter>
    <g id="widget3">
      <path d="M 25 15  C 33.4 15  40 21.6  40 30  C 40 38.4  33.4 45  25 45  C 16.6 45  10 38.4  10 30  C 10 21.6  16.6 15  25 15  Z " fill-rule="nonzero" fill="#009dd9" stroke="none" />
      <path d="M 25 15.5  C 33.12 15.5  39.5 21.88  39.5 30  C 39.5 38.12  33.12 44.5  25 44.5  C 16.88 44.5  10.5 38.12  10.5 30  C 10.5 21.88  16.88 15.5  25 15.5  Z " stroke-width="1" stroke="#ffffff" fill="none" />
    </g>
  </defs>
  <g transform="matrix(1 0 0 1 -6 -11 )">
    <use xlink:href="#widget3" filter="url(#filter2)" />
    <use xlink:href="#widget3" />
  </g>
</svg>